<svg xmlns="http://www.w3.org/2000/svg" xmlns:xlink="http://www.w3.org/1999/xlink" version="1.1" width="256" height="256" viewBox="0 0 256 256" xml:space="preserve">
<g style="stroke: none; stroke-width: 0; stroke-dasharray: none; stroke-linecap: butt; stroke-linejoin: miter; stroke-miterlimit: 10; fill: none; fill-rule: nonzero; opacity: 1;" transform="translate(1.4065934065934016 1.4065934065934016) scale(2.81 2.81)">
	<path d="M 32.396 66.995 c -2.406 0 -4.812 -0.915 -6.644 -2.747 c -3.664 -3.664 -3.664 -9.625 0 -13.289 L 35.782 40.93 c 1.775 -1.775 4.134 -2.752 6.645 -2.752 c 2.51 0 4.87 0.978 6.644 2.752 c 0.781 0.781 0.781 2.047 0 2.828 c -0.781 0.781 -2.047 0.781 -2.828 0 c -1.02 -1.019 -2.375 -1.581 -3.816 -1.581 c -1.442 0 -2.797 0.562 -3.816 1.581 L 28.581 53.787 c -2.104 2.104 -2.104 5.528 0 7.633 c 2.104 2.104 5.527 2.103 7.632 0 l 6.484 -6.485 c 0.781 -0.781 2.047 -0.781 2.829 0 c 0.781 0.78 0.781 2.047 0 2.828 l -6.484 6.485 C 37.209 66.079 34.803 66.995 32.396 66.995 z" style="stroke: none; stroke-width: 1; stroke-dasharray: none; stroke-linecap: butt; stroke-linejoin: miter; stroke-miterlimit: 10; fill: rgb(119,141,147); fill-rule: nonzero; opacity: 1;" transform=" matrix(1 0 0 1 0 0) " stroke-linecap="round"/>
	<path d="M 47.574 51.822 c -2.51 0 -4.87 -0.977 -6.645 -2.752 c -0.781 -0.781 -0.781 -2.047 0 -2.828 c 0.78 -0.781 2.048 -0.781 2.828 0 c 1.02 1.02 2.375 1.58 3.816 1.58 s 2.796 -0.561 3.815 -1.58 l 10.03 -10.029 c 2.104 -2.104 2.104 -5.528 0 -7.632 C 60.4 27.562 59.045 27 57.604 27 s -2.797 0.562 -3.816 1.581 l -6.602 6.602 c -0.781 0.781 -2.048 0.782 -2.829 0 c -0.781 -0.781 -0.781 -2.047 0 -2.828 l 6.602 -6.602 c 3.664 -3.664 9.625 -3.664 13.289 0 c 3.663 3.664 3.663 9.625 0 13.289 L 54.218 49.07 C 52.443 50.846 50.084 51.822 47.574 51.822 z" style="stroke: none; stroke-width: 1; stroke-dasharray: none; stroke-linecap: butt; stroke-linejoin: miter; stroke-miterlimit: 10; fill: rgb(119,141,147); fill-rule: nonzero; opacity: 1;" transform=" matrix(1 0 0 1 0 0) " stroke-linecap="round"/>
	<path d="M 0.116 41.934 l 5.96 -4.672 l 6.518 4.984 C 13.994 25.57 27.963 12.47 45 12.47 c 0.951 0 1.889 0.05 2.819 0.129 l 4.919 -6.275 L 47.986 0.11 C 46.998 0.045 46.004 0 45 0 C 21.218 0 1.699 18.547 0.116 41.934 z" style="stroke: none; stroke-width: 1; stroke-dasharray: none; stroke-linecap: butt; stroke-linejoin: miter; stroke-miterlimit: 10; fill: rgb(255,209,91); fill-rule: nonzero; opacity: 1;" transform=" matrix(1 0 0 1 0 0) " stroke-linecap="round"/>
	<path d="M 48.066 0.116 l 4.672 5.96 l -4.984 6.518 C 64.43 13.994 77.53 27.963 77.53 45 c 0 0.951 -0.05 1.889 -0.129 2.819 l 6.275 4.919 l 6.214 -4.752 C 89.955 46.998 90 46.004 90 45 C 90 21.218 71.453 1.699 48.066 0.116 z" style="stroke: none; stroke-width: 1; stroke-dasharray: none; stroke-linecap: butt; stroke-linejoin: miter; stroke-miterlimit: 10; fill: rgb(50,171,219); fill-rule: nonzero; opacity: 1;" transform=" matrix(1 0 0 1 0 0) " stroke-linecap="round"/>
	<path d="M 89.884 48.066 l -5.96 4.672 l -6.518 -4.984 C 76.006 64.43 62.037 77.53 45 77.53 c -0.951 0 -1.889 -0.05 -2.819 -0.129 l -4.919 6.275 l 4.752 6.214 C 43.002 89.955 43.996 90 45 90 C 68.781 90 88.301 71.453 89.884 48.066 z" style="stroke: none; stroke-width: 1; stroke-dasharray: none; stroke-linecap: butt; stroke-linejoin: miter; stroke-miterlimit: 10; fill: rgb(9,214,180); fill-rule: nonzero; opacity: 1;" transform=" matrix(1 0 0 1 0 0) " stroke-linecap="round"/>
	<path d="M 41.934 89.884 l -4.672 -5.96 l 4.984 -6.518 C 25.57 76.006 12.47 62.037 12.47 45 c 0 -0.951 0.05 -1.889 0.129 -2.819 l -6.275 -4.919 L 0.11 42.014 C 0.045 43.002 0 43.996 0 45 C 0 68.781 18.547 88.301 41.934 89.884 z" style="stroke: none; stroke-width: 1; stroke-dasharray: none; stroke-linecap: butt; stroke-linejoin: miter; stroke-miterlimit: 10; fill: rgb(242,112,112); fill-rule: nonzero; opacity: 1;" transform=" matrix(1 0 0 1 0 0) " stroke-linecap="round"/>
</g>
</svg>